PathFileType	4	(X/Y/Z)	Patient4_TMGait_0pt4_02_right_10.trc.trc
DataRate	CameraRate	NumFrames	NumMarkers	Units	OrigDataRate	OrigDataStartFrame	OrigNumFrames
77.777777777778	77.777777777778	6	33	mm	77.777777777778	124	       141
Frame#	Time	Sacral			L.Shoulder			Chest			R.Shoulder			Neck			R.ASIS			L.ASIS			R.Thigh.Superior			R.Thigh.Lateral			R.Thigh.Inferior			R.Patella			L.Thigh.Superior			L.Thigh.Lateral			L.Thigh.Inferior			L.Patella			L.Shank.Superior			L.Shank.Lateral			L.Shank.Inferior			R.Shank.Superior			R.Shank.Lateral			R.Shank.Inferior			R.Heel			R.Midfoot.Superior			R.Midfoot.Lateral			R.Toe			L.Heel			L.Midfoot.Lateral			L.Midfoot.Superior			L.Toe			L.Elbow			L.Wrist			R.Elbow			R.Wrist			
		X1	Y1	Z1	X2	Y2	Z2	X3	Y3	Z3	X4	Y4	Z4	X5	Y5	Z5	X6	Y6	Z6	X7	Y7	Z7	X8	Y8	Z8	X9	Y9	Z9	X10	Y10	Z10	X11	Y11	Z11	X12	Y12	Z12	X13	Y13	Z13	X14	Y14	Z14	X15	Y15	Z15	X16	Y16	Z16	X17	Y17	Z17	X18	Y18	Z18	X19	Y19	Z19	X20	Y20	Z20	X21	Y21	Z21	X22	Y22	Z22	X23	Y23	Z23	X24	Y24	Z24	X25	Y25	Z25	X26	Y26	Z26	X27	Y27	Z27	X28	Y28	Z28	X29	Y29	Z29	X30	Y30	Z30	X31	Y31	Z31	X32	Y32	Z32	X33	Y33	Z33	

124	14.331428571429	895.252305524646	1003.996190615710	422.006270774871	1098.832231067157	1425.180796519701	240.467128294839	1178.634238110147	1365.984746740683	416.782101820212	1071.758387262307	1445.987363993010	574.493212889523	1063.521310793270	1492.983768761455	387.000142309883	1112.814687063596	946.481291232537	563.735074867192	1123.763334531318	958.055080845293	287.781923067080	1171.342354494380	752.002913679877	543.278099755015	1102.723795845784	636.175652789086	606.815210331291	1189.970212915071	589.973577512280	531.846826949009	1208.296638634659	510.035984593287	543.360662821782	1129.578802436180	732.337057668671	315.568367061872	1018.422549258629	634.693465932423	247.310541754546	1080.994523903715	543.081154958950	311.480336920956	1066.856003148095	475.989049518189	318.971318761845	1033.070528724222	408.910416843342	309.890352381133	928.555942863311	306.674792068045	258.980763494150	965.942464404160	188.719291683988	328.493128126686	1192.095125195195	421.256835558518	554.507808321206	1133.604014337667	309.825610122824	616.575292792487	1199.759097603205	221.586167724020	565.582708249208	1100.307556317625	43.597500119635	538.451378967284	1266.794135663312	104.832848476458	575.442247436046	1183.754289262997	38.963724954004	612.803970759980	1389.396643465461	60.239783891653	603.024800888210	827.167618664435	40.266766681392	375.420940173220	897.565970877745	35.378471225023	292.154172461155	982.609737675458	95.585476121519	315.683126354750	1109.888869596559	40.380865430727	282.132459737981	1152.662727319788	1088.404533394446	101.972613708817	1382.144104690298	963.260165843610	116.688742001547	932.788727542904	1133.662048286097	692.893747398338	928.765614020223	872.065006015919	711.820844461747	
125	14.344285714286	896.631822437181	1002.783551913340	424.563837190806	1098.147409553811	1424.924815239949	243.760518489519	1178.404086239953	1365.992930585097	420.013259321153	1071.006516766855	1445.099253872515	577.879573725942	1062.712002802967	1492.441569460680	390.545376198473	1114.517222324723	945.600319076442	565.970305606564	1125.252844957708	957.833459347269	290.204752467369	1173.380323795823	750.494124707376	544.961842307732	1102.875568929406	634.700757747288	607.001339205718	1190.318971168684	588.847644948638	532.229955735714	1207.076239968722	508.044483386564	542.689045810043	1130.358569371526	731.544210202096	316.801394751703	1018.260656211376	634.493268829622	249.024418651849	1080.572897864670	542.356434677972	312.672405177685	1066.272971879030	474.833414334530	319.918081395738	1031.416461566285	408.233127386359	310.811209571696	925.569106320033	307.309700390061	259.877078087745	961.876538024326	188.579318530529	328.720761608750	1190.131718760834	418.739811154930	553.725806898717	1130.041632219907	307.980052371776	615.671118616427	1194.302776852328	218.816369793779	564.008143720388	1091.541435586489	42.918654610486	537.075492920504	1258.735881775030	102.008597922307	573.257136833946	1174.883873433661	38.010740589448	611.567990495121	1381.075513554994	56.052635288912	601.377705561795	821.979515444716	40.785459247548	375.278043158357	892.452470432351	35.533786536870	292.148044699837	977.620364897188	95.632133267247	315.604958997365	1104.780077594316	40.188130735251	282.071383886590	1150.944168173771	1087.347562475839	106.026159949870	1379.053251372672	959.435629804523	120.913082726996	935.260534764084	1131.101365949877	696.314165179948	936.818392044944	869.395191334153	715.104111889348	
126	14.357142857143	897.969178811350	1001.756515308229	427.235869434487	1097.465101808119	1424.863901938403	247.196683992398	1178.218657259790	1366.136078675298	423.353766581229	1070.370076716889	1444.314111739736	581.431925262705	1061.992985724306	1492.074305998267	394.222221895398	1116.235324126210	944.933591757546	568.250424232004	1126.683828377739	957.762885761870	292.686066164923	1175.470645008378	749.320490071189	546.484814152465	1103.556883171501	633.705526556192	607.457390998689	1190.974328696897	588.099186854228	532.638247248600	1206.243200756155	506.395429729011	542.300628250931	1131.350149561657	730.949141588916	318.099342224398	1018.470329750508	634.324198298874	250.856774729195	1080.780749475258	541.715990999081	313.895664202670	1066.432381166375	473.612926193829	320.801556151439	1030.294786969239	407.549146237048	311.718184142476	922.922301573397	308.137830595370	260.854650644313	958.036240185533	188.550450145322	328.923779329982	1188.620901345213	416.685908726230	553.291826676304	1127.226549850084	306.586185797734	615.370175559328	1189.511575335549	216.525784610414	562.877073465953	1083.538247499926	42.450011374415	536.291716252993	1251.398223259894	99.867358337213	571.681150058301	1166.860819292279	37.380076432812	610.825712359561	1373.523753281024	52.705035372275	600.096872876437	816.821926883143	41.628588964770	375.098495303505	887.363755739125	35.808404889902	292.129127027343	972.753523236194	95.714738075774	315.457654313627	1099.685306644524	39.967224800099	281.995124807689	1148.852165554564	1086.348588363625	110.346081981070	1375.203385023739	954.970122469632	125.015211004460	938.345435817371	1128.413275826617	699.952746624821	945.989238259983	866.710865269846	718.601266818921	
127	14.370000000000	899.239181527486	1000.978545314420	430.001419006905	1096.828989939639	1425.037937036698	250.754187418837	1178.081830623503	1366.435546032245	426.787476927351	1069.859347380090	1443.688137597205	585.115538531765	1061.384271859969	1491.920554323008	397.993376944254	1117.897580527839	944.519010427459	570.606501459143	1128.043870824693	957.884674072598	295.237125241200	1177.493134672431	748.535110898787	547.888673100523	1104.688393254628	633.193442971117	608.236152112523	1191.857863504260	587.723349157518	533.144421391424	1205.748043942835	505.125651236338	542.301942728492	1132.565268486349	730.604973462583	319.524195575579	1019.139176233740	634.195119531054	252.790440444206	1081.742042288284	541.187842726655	315.139016079510	1067.459894550276	472.347799640389	321.569685691352	1029.812549091116	406.877850332296	312.570295826264	920.707021237642	309.214336630514	261.887493643296	954.496912016499	188.689454872182	329.075118537163	1187.506984526649	415.128701443243	553.251987317778	1125.113688889460	305.645245641523	615.655665770657	1185.414689873603	214.762301907655	562.201309677804	1076.450024238286	42.180236111523	535.991401494523	1244.900703034041	98.416882371934	570.716327374651	1159.805274808595	37.031892338330	610.502796023869	1366.846994698396	50.228472264510	599.217896979939	811.730191269496	42.917448146490	374.875691981315	882.317400193665	36.263274778339	292.089907052533	968.060741872854	95.851141279205	315.215339606242	1094.603706880253	39.721549568941	281.905394557383	1146.385088324917	1085.460915757574	114.929867329566	1370.538281345993	949.914186627206	128.961628482926	942.031541337714	1125.690164603358	703.769068359915	956.227447457557	864.148402150237	722.280268976440	
128	14.382857142857	900.422092129298	1000.488141923022	432.854294895276	1096.266587921959	1425.466041178768	254.412067072812	1177.991109106953	1366.899067708508	430.296382303530	1069.478798862377	1443.262978819509	588.895294904668	1060.889560086503	1491.996532992843	401.825343505169	1119.446843127839	944.367518225830	573.072346053696	1129.321622960732	958.228961765782	297.870652278266	1179.351078730974	748.146435397601	549.239585977334	1106.139982698725	633.113764424383	609.355768543878	1192.866087053060	587.664387090425	533.822672291697	1205.493677011282	504.216056175880	542.746558032395	1134.017469285457	730.552398883220	321.129804131764	1020.362737819304	634.106115394736	254.797476146758	1083.586743760345	540.794661903861	316.382037721713	1069.482071456790	471.061016755762	322.166437294894	1030.088524889061	406.236420004169	313.323832193700	919.033944831563	310.593175892047	262.942736148452	951.350125685133	189.059412996301	329.148102381757	1186.668179052184	414.034608448396	553.606372691812	1123.538113693008	305.108054546730	616.446237868382	1181.912691616829	213.503802184155	561.945606357099	1070.248705552638	42.079763299275	536.045426945689	1239.197586578758	97.578314002589	570.291015333507	1153.661294856017	36.905245811341	610.501520817944	1360.988746423971	48.547997510230	598.722260821959	806.754613838292	44.787959050425	374.603999763890	877.340121562877	36.978519223284	292.023071518846	963.602090071503	96.067557174365	314.855034130671	1089.534375681961	39.456574628900	281.805937198586	1143.544016242715	1084.729813774773	119.765081542637	1364.997551961852	944.326303068851	132.731314955951	946.295004953672	1123.019796948310	707.730905320798	967.499958117139	861.847955964958	726.107675841513	
129	14.395714285714	901.500827565140	1000.291210591681	435.803508694425	1095.782852208432	1426.139849339439	258.152195613334	1177.938681026456	1367.516542045584	433.861659031425	1069.229906784296	1443.057027908880	592.741135237996	1060.498535993154	1492.292032468184	405.693781923297	1120.845822239773	944.460012627101	575.675810988581	1130.501226321462	958.806935819056	300.597170633666	1180.968904347228	748.108819395705	550.624944762799	1107.717760676304	633.369363585446	610.800049078513	1193.860147665180	587.823484472906	534.742482266148	1205.330833790475	503.602514326707	543.629260507703	1135.723136676211	730.814196764468	322.953837307835	1022.239792173210	634.046637533900	256.841455665887	1086.441369694842	540.552404103389	317.599919508608	1072.618572187552	469.777779797694	322.544228526586	1031.249147365892	405.638643736123	313.941451497311	918.032309380920	312.322567079885	263.985460781343	948.701098685355	189.725959830412	329.122383145758	1185.931413149600	413.321219648036	554.317992680091	1122.254975046583	304.886523336037	617.616615772720	1178.823263138028	212.676001847204	562.042395815180	1064.784474501382	42.106731869265	536.324768157267	1234.134377285287	97.219707644731	570.286787077361	1148.257961547161	36.931619190235	610.718083724974	1355.787951046161	47.520918020234	598.551178315847	801.962101764961	47.386692976636	374.280107839131	872.470236728917	38.056662661763	291.922817970753	959.444872853734	96.401649953502	314.362009839202	1084.477976149404	39.178005825243	281.702667922293	1140.331673083443	1084.183283633578	124.827694381665	1358.520717536032	938.270760525498	136.316097441218	951.101529748443	1120.475872343943	711.819423164343	979.791082233160	859.945636064539	730.049527144382	
